<svg xmlns="http://www.w3.org/2000/svg" viewBox="0 0 128 128" role="img" aria-label="Cat logo">
  <path
    fill="#e8f4ff"
    d="M28 36c0-12 9-22 22-24l5 12c3-2 6-3 9-3s7 1 9 3l5-12c13 2 22 12 22 24 0 20-15 37-31 37S28 56 28 36z"
  />
  <path fill="#ff8a00" d="M64 18c10 0 18 8 18 18 0 13-10 24-18 24V18z" />
  <circle cx="50" cy="48" r="7" fill="#431b16" />
  <circle cx="78" cy="48" r="7" fill="#431b16" />
  <path d="M64 57l7 5-7 6-7-6 7-5z" fill="#7a2d1f" />
  <path
    d="M44 63c6 4 12 6 20 6s14-2 20-6"
    stroke="#431b16"
    stroke-width="4"
    fill="none"
    stroke-linecap="round"
  />
  <circle cx="50" cy="74" r="8" fill="#ffcc4d" />
  <path d="M46 80h8" stroke="#431b16" stroke-width="3" stroke-linecap="round" />
</svg>
